<svg width="619" height="396" viewBox="0 0 619 396" fill="none" xmlns="http://www.w3.org/2000/svg">
<g clip-path="url(#clip0_64_27)">
<path d="M538.948 352.775H46.1982V14.9176C46.1982 6.92898 52.3013 0.422546 59.8121 0.422546H525.334C532.837 0.422546 538.948 6.9206 538.948 14.9176V352.775Z" fill="#ADBBDA"/>
<path d="M579.778 396H4.56808C2.58105 396 0.955303 394.425 0.413386 391.978C-0.120678 389.541 0.625434 387.104 2.32187 385.79L47.1596 350.858H538.985L539.126 350.968L582.103 385.84C583.76 387.184 584.482 389.611 583.933 392.028C583.383 394.435 581.757 396 579.794 396H579.778Z" fill="#DFDFDF"/>
<path d="M525.196 21.3803H59.9492V330.507H525.196V21.3803Z" fill="white"/>
<path d="M543.304 373.795H43.9473L68.632 348.22H519.743L543.304 373.795Z" fill="#2F2E41"/>
<path d="M410.896 390.985H174.117L183.094 373.795H401.919L410.896 390.985Z" fill="#2F2E41"/>
<path d="M577.736 83.6264L566.175 88.4806V67.2184H576.668L577.736 83.6264Z" fill="#F2A7AA"/>
<path d="M567.604 73.1056C573.967 73.1056 579.126 66.5184 579.126 58.3926C579.126 50.2668 573.967 43.6796 567.604 43.6796C561.241 43.6796 556.083 50.2668 556.083 58.3926C556.083 66.5184 561.241 73.1056 567.604 73.1056Z" fill="#F2A7AA"/>
<path d="M570.769 56.9383C568.837 56.8681 567.572 54.3708 566.826 52.1042C566.08 49.8275 565.303 47.2199 563.52 46.2772C562.059 45.5049 559.475 50.6901 558.321 49.316C557.119 47.8819 558.289 40.4802 559.569 39.1563C560.85 37.8325 562.593 37.5717 564.242 37.4714C568.256 37.2307 572.301 37.6519 576.235 38.695C578.67 39.3469 581.175 40.3197 582.935 42.5663C585.157 45.4146 585.731 49.7172 585.888 53.739C586.053 57.851 585.864 62.1636 584.301 65.7541C582.738 69.3546 579.455 72.0124 576.314 71.0897C576 68.9033 576.314 66.6668 576.44 64.4503C576.557 62.2338 576.44 59.8468 575.379 58.0817C574.319 56.3165 572.057 55.6245 570.824 57.1891" fill="#36344E"/>
<path d="M584.946 62.0332C586.1 60.9501 587.475 60.0575 588.896 60.2781C590.428 60.5188 591.723 62.1335 592.116 64.0391C592.509 65.9447 592.069 68.0508 591.119 69.6054C590.168 71.1599 588.763 72.193 587.27 72.7145C586.406 73.0154 585.464 73.1357 584.639 72.6844C583.43 72.0225 582.778 70.0366 583.249 68.4721" fill="#36344E"/>
<path d="M573.919 320.138H563.088V339.756H573.919V320.138Z" fill="#F2A7AA"/>
<path d="M552.54 351.64C551.402 351.64 550.388 351.6 549.627 351.51C546.752 351.169 544.003 348.461 542.621 346.876C542 346.164 541.804 345.031 542.126 344.048C542.354 343.346 542.817 342.824 543.391 342.614L550.993 339.836L563.3 329.225L563.434 329.536C563.489 329.656 564.69 332.434 565.099 334.309C565.256 335.022 565.209 335.623 564.981 336.085C564.816 336.406 564.596 336.586 564.408 336.696C564.627 336.997 565.326 337.599 567.478 338.04C570.612 338.682 571.28 334.52 571.303 334.35L571.327 334.209L571.421 334.129C572.913 332.895 573.832 332.344 574.154 332.464C574.351 332.544 574.68 332.665 575.576 343.988C575.662 344.339 576.29 346.946 575.866 349.434C575.403 352.142 566.135 351.209 564.282 350.998C564.227 350.998 557.292 351.64 552.533 351.64H552.54Z" fill="#36344E"/>
<path d="M604.753 304.71L595.563 312.029L603.693 328.675L612.883 321.356L604.753 304.71Z" fill="#F2A7AA"/>
<path d="M592.556 348.952C591.283 348.952 590.113 348.762 589.281 348.571C588.464 348.391 587.82 347.558 587.686 346.505C587.592 345.753 587.765 345.001 588.165 344.429L593.467 336.937L599.514 319.617L599.758 319.787C599.852 319.847 602.027 321.392 603.151 322.716C603.575 323.217 603.787 323.749 603.779 324.3C603.779 324.681 603.661 324.992 603.551 325.203C603.865 325.303 604.706 325.343 606.716 324.26C609.646 322.686 608.483 318.704 608.436 318.533L608.397 318.403L608.444 318.273C609.206 316.217 609.748 315.123 610.07 315.013C610.266 314.943 610.604 314.833 616.047 323.829C616.267 324.07 617.877 325.855 618.552 328.262C619.282 330.869 611.028 336.346 609.371 337.419C609.316 337.469 600.684 345.482 597.142 347.759C595.737 348.662 594.072 348.942 592.556 348.942V348.952Z" fill="#36344E"/>
<path d="M581.898 156.038H551.575L548.826 192.064L560.866 325.163H576.346L570.157 248.288L595.266 317.691L609.026 305.395L589.414 240.605C589.414 240.605 596.42 184.16 590.915 170.099C585.409 156.038 581.898 156.038 581.898 156.038Z" fill="#36344E"/>
<path d="M596.978 158.235H548.818L563.269 78.7321H584.247L596.978 158.235Z" fill="#6C63FF"/>
<path d="M536.856 77.1575C536.086 72.3233 537.492 67.9004 539.998 67.2886C542.503 66.6768 545.15 70.0968 545.919 74.941C546.249 76.8666 546.194 78.8624 545.77 80.768L548.818 101.318L540.948 102.903L538.78 82.483C537.806 80.9285 537.147 79.1031 536.856 77.1575Z" fill="#F2A7AA"/>
<path d="M583.736 78.7321H565.232L552.76 110.595L548.056 86.7254L537.72 88.1295C537.72 88.1295 540.163 134.776 550.86 133.201C561.549 131.627 586.485 89.5938 583.744 78.7421L583.736 78.7321Z" fill="#6C63FF"/>
<path d="M604.407 199.896C605.177 204.731 603.771 209.154 601.266 209.765C598.76 210.377 596.114 206.957 595.344 202.113C595.014 200.187 595.069 198.191 595.493 196.286L592.446 175.736L600.315 174.151L602.483 194.571C603.457 196.125 604.117 197.951 604.407 199.896Z" fill="#F2A7AA"/>
<path d="M573.188 78.7321C573.188 78.7321 583.704 78.1604 584.246 78.7321C587.113 81.7309 603.952 189.717 603.952 189.717H593.286L573.18 78.7321H573.188Z" fill="#6C63FF"/>
<path d="M214.136 281.992H169V329.029H214.136V281.992Z" fill="#D9D9D9"/>
<path d="M259.273 289.832H217.898V329.029H259.273V289.832Z" fill="#D9D9D9"/>
<path d="M308.171 289.832H266.795V329.029H308.171V289.832Z" fill="#D9D9D9"/>
<path d="M402.205 297.671H360.83V329.029H402.205V297.671Z" fill="#D9D9D9"/>
<path d="M353.307 184H311.932V329.029H353.307V184Z" fill="#7091E6"/>
</g>
<defs>
<clipPath id="clip0_64_27">
<rect width="619" height="396" fill="white"/>
</clipPath>
</defs>
</svg>
