<svg width="70" height="70" viewBox="0 0 70 70" fill="none" xmlns="http://www.w3.org/2000/svg">
<path fill-rule="evenodd" clip-rule="evenodd" d="M35 69.5C54.0538 69.5 69.5 54.0538 69.5 35C69.5 15.9462 54.0538 0.5 35 0.5C15.9462 0.5 0.5 15.9462 0.5 35C0.5 54.0538 15.9462 69.5 35 69.5Z" fill="#FEDC5A" fill-opacity="0.1"/>
<path d="M32.75 22.7588C32.75 22.1795 32.4399 21.6558 32.0813 21.1949C31.7132 20.7217 31.5 20.1604 31.5 19.5585C31.5 17.8693 33.1789 16.5 35.25 16.5C37.3211 16.5 39 17.8693 39 19.5585C39 20.1604 38.7868 20.7217 38.4187 21.1949C38.0601 21.6558 37.75 22.1795 37.75 22.7588C37.75 23.3009 38.2128 23.7337 38.7658 23.7014C41.9501 23.5154 45.0831 23.1443 48.1536 22.599C48.4915 22.539 48.8398 22.6177 49.1166 22.8167C49.3935 23.0156 49.5744 23.3173 49.6171 23.6508C49.9905 26.5698 50.2021 29.5375 50.2431 32.5452C50.2513 33.1428 49.7555 33.6274 49.1449 33.6276C48.553 33.6276 48.0179 33.3241 47.547 32.9731C47.0635 32.6128 46.49 32.4042 45.875 32.4042C44.1491 32.4042 42.75 34.0474 42.75 36.0744C42.75 38.1014 44.1491 39.7446 45.875 39.7446C46.49 39.7446 47.0635 39.5359 47.547 39.1756C48.0179 38.8246 48.553 38.5212 49.1449 38.5212C49.6623 38.5212 50.0731 38.948 50.0357 39.453C49.8379 42.1258 49.5051 44.7623 49.0439 47.3559C48.9535 47.8646 48.5465 48.2629 48.0267 48.3514C44.9949 48.8678 41.9057 49.2197 38.7691 49.3974C38.2141 49.4289 37.75 48.9943 37.75 48.4502C37.75 47.8708 38.0601 47.3472 38.4187 46.8863C38.7868 46.4131 39 45.8518 39 45.2498C39 43.5607 37.3211 42.1914 35.25 42.1914C33.1789 42.1914 31.5 43.5607 31.5 45.2498C31.5 45.8518 31.7132 46.4131 32.0813 46.8863C32.4399 47.3472 32.75 47.8708 32.75 48.4502C32.75 49.04 32.2566 49.5163 31.6542 49.4996C29.005 49.426 26.3873 49.2283 23.8069 48.9121C23.4661 48.8704 23.1579 48.6932 22.9546 48.4223C22.7513 48.1514 22.6709 47.8105 22.7322 47.4798C23.2204 44.8471 23.5719 42.1675 23.7793 39.4482C23.8176 38.9461 23.4094 38.5212 22.8949 38.5212C22.303 38.5212 21.7679 38.8246 21.297 39.1756C20.8135 39.5359 20.24 39.7446 19.625 39.7446C17.8991 39.7446 16.5 38.1014 16.5 36.0744C16.5 34.0474 17.8991 32.4042 19.625 32.4042C20.24 32.4042 20.8135 32.6128 21.297 32.9731C21.7679 33.3241 22.303 33.6276 22.8949 33.6276C23.5055 33.6276 24.0013 33.1431 23.9929 32.5455C23.9556 29.8896 23.781 27.2663 23.476 24.6825C23.4322 24.3115 23.564 23.9412 23.8338 23.677C24.1037 23.4129 24.4821 23.2839 24.8612 23.3268C27.0984 23.5798 29.3643 23.7411 31.6551 23.8066C32.2569 23.8239 32.75 23.348 32.75 22.7588Z" stroke="#FADA5D" stroke-linejoin="round"/>
</svg>
