<svg width="70" height="69" viewBox="0 0 70 69" fill="none" xmlns="http://www.w3.org/2000/svg">
<path fill-rule="evenodd" clip-rule="evenodd" d="M35 69C54.0538 69 69.5 53.5538 69.5 34.5C69.5 15.4462 54.0538 0 35 0C15.9462 0 0.5 15.4462 0.5 34.5C0.5 53.5538 15.9462 69 35 69Z" fill="#5454D4" fill-opacity="0.1"/>
<path fill-rule="evenodd" clip-rule="evenodd" d="M52.998 44.5455C52.6217 44.5455 52.3163 44.24 52.3163 43.8636V22.0455C52.3163 21.6705 52.0108 21.3636 51.6345 21.3636H20.2741C19.8978 21.3636 19.5924 21.6705 19.5924 22.0455V43.8636C19.5924 44.24 19.287 44.5455 18.9106 44.5455C18.5343 44.5455 18.2289 44.24 18.2289 43.8636V22.0455C18.2289 20.9177 19.1465 20 20.2741 20H51.6345C52.7621 20 53.6798 20.9177 53.6798 22.0455V43.8636C53.6798 44.24 53.3743 44.5455 52.998 44.5455H52.998Z" fill="#5454D4"/>
<path fill-rule="evenodd" clip-rule="evenodd" d="M53 49.9981H18.9091C17.0286 49.9981 15.5 48.4695 15.5 46.589C15.5 46.2127 15.8055 45.9072 16.1818 45.9072H31.1818C31.5582 45.9072 31.8636 46.2127 31.8636 46.589C31.8636 46.9654 31.5582 47.2708 31.1818 47.2708H16.9809C17.2618 48.0645 18.02 48.6345 18.9091 48.6345H53C53.8891 48.6345 54.6473 48.0645 54.9282 47.2708H40.7273C40.3509 47.2708 40.0455 46.9654 40.0455 46.589C40.0455 46.2127 40.3509 45.9072 40.7273 45.9072H55.7273C56.1036 45.9072 56.4091 46.2127 56.4091 46.589C56.4091 48.4695 54.8805 49.9981 53 49.9981Z" fill="#5454D4"/>
<path fill-rule="evenodd" clip-rule="evenodd" d="M29.8157 39.4963C29.6563 39.4963 29.4968 39.4404 29.3673 39.3273L23.9147 34.5556C23.7662 34.4261 23.6816 34.2406 23.6816 34.043C23.6816 33.8453 23.7662 33.6599 23.9147 33.5303L29.3673 28.7587C29.6494 28.5092 30.0788 28.5364 30.3296 28.8227C30.5777 29.1063 30.5491 29.5358 30.2656 29.7839L25.3978 34.043L30.2642 38.302C30.5477 38.5502 30.5764 38.9796 30.3283 39.2632C30.1933 39.4172 30.0052 39.4963 29.8157 39.4963L29.8157 39.4963Z" stroke="#5454D4"/>
<path fill-rule="evenodd" clip-rule="evenodd" d="M33.9079 40.8636C33.8369 40.8636 33.7646 40.8527 33.6923 40.8295C33.3348 40.7095 33.1425 40.3235 33.2612 39.9661L37.3542 27.6895C37.4729 27.3321 37.8563 27.137 38.2165 27.2584C38.574 27.3785 38.7663 27.7645 38.6476 28.1219L34.5546 40.3985C34.4591 40.6822 34.193 40.8636 33.9079 40.8636Z" stroke="#5454D4"/>
<path fill-rule="evenodd" clip-rule="evenodd" d="M42.0893 39.4963C41.8997 39.4963 41.7115 39.4172 41.5765 39.2632C41.3282 38.9796 41.3569 38.5502 41.6406 38.3021L46.5099 34.0432L41.6406 29.7844C41.3569 29.5363 41.3282 29.1068 41.5765 28.8233C41.8247 28.537 42.2557 28.5111 42.5394 28.7592L47.9953 33.5306C48.1426 33.6602 48.2272 33.8456 48.2272 34.0432C48.2272 34.2409 48.1426 34.4263 47.9939 34.5558L42.5381 39.3273C42.4085 39.4404 42.2489 39.4963 42.0893 39.4963H42.0893Z" stroke="#5454D4"/>
</svg>
