<svg width="70" height="69" viewBox="0 0 70 69" fill="none" xmlns="http://www.w3.org/2000/svg">
<path fill-rule="evenodd" clip-rule="evenodd" d="M35 69C54.0538 69 69.5 53.5538 69.5 34.5C69.5 15.4462 54.0538 0 35 0C15.9462 0 0.5 15.4462 0.5 34.5C0.5 53.5538 15.9462 69 35 69Z" fill="#F04037" fill-opacity="0.1"/>
<path fill-rule="evenodd" clip-rule="evenodd" d="M46.9903 17.5625C46.3754 17.5625 45.7743 17.7445 45.2627 18.0856L38.2791 22.7413C36.374 24.0114 34.6499 25.5203 33.146 27.2256C33.0414 27.3443 32.9991 27.5054 33.0319 27.6601C33.0647 27.8148 33.1687 27.9448 33.3125 28.0108C36.1119 29.2955 38.3717 31.5553 39.6564 34.3547C39.7224 34.4985 39.8524 34.6025 40.0072 34.6353C40.1619 34.6681 40.323 34.6258 40.4416 34.5212C42.1469 33.0173 43.6558 31.2932 44.9259 29.3881L49.5816 22.4045C49.9227 21.8929 50.1047 21.2918 50.1047 20.6769C50.1047 18.9569 48.7103 17.5625 46.9903 17.5625ZM45.8174 18.9176C46.1648 18.6861 46.5729 18.5625 46.9903 18.5625C48.1581 18.5625 49.1047 19.5092 49.1047 20.6769C49.1047 21.0943 48.9811 21.5024 48.7496 21.8498L44.0939 28.8334C42.9946 30.4822 41.7094 31.9901 40.268 33.3295C38.9504 30.794 36.8732 28.7168 34.3377 27.3992C35.6771 25.9578 37.185 24.6726 38.8338 23.5734L45.8174 18.9176ZM32.3979 28.7056C32.1874 28.6205 31.946 28.6879 31.81 28.8697C31.1036 29.8144 30.4596 30.8082 29.8834 31.8453L29.5004 32.5347C29.4263 32.668 29.4172 32.8279 29.4755 32.9688C29.5339 33.1097 29.6534 33.2163 29.8 33.2582C32.0217 33.8937 33.7735 35.6455 34.409 37.8672C34.4509 38.0138 34.5575 38.1333 34.6984 38.1917C34.8394 38.25 34.9992 38.2409 35.1325 38.1668L35.8219 37.7838C36.859 37.2076 37.8528 36.5636 38.7975 35.8572C38.9793 35.7212 39.0467 35.4798 38.9616 35.2693C37.7566 32.2893 35.3779 29.9107 32.3979 28.7056ZM30.7576 32.331C31.2481 31.4481 31.7897 30.5978 32.3788 29.784C34.8233 30.8758 36.7914 32.8439 37.8832 35.2884C37.0694 35.8775 36.2191 36.4192 35.3362 36.9097L35.1745 36.9995C34.393 34.9237 32.7435 33.2742 30.6677 32.4927L30.7576 32.331ZM27.7811 34.0625C24.6572 34.0625 22.1249 36.5949 22.1249 39.7188C22.1249 40.5817 21.4253 41.2812 20.5624 41.2812C20.5268 41.2812 20.4913 41.2801 20.456 41.2777C19.8922 41.2404 19.3537 41.5167 19.055 41.9964C18.7564 42.4761 18.7462 43.0812 19.0285 43.5707C20.3596 45.8784 22.856 47.4375 25.7186 47.4375C29.9816 47.4375 33.4374 43.9817 33.4374 39.7188C33.4374 36.5949 30.905 34.0625 27.7811 34.0625ZM23.1249 39.7188C23.1249 37.1471 25.2095 35.0625 27.7811 35.0625C30.3527 35.0625 32.4374 37.1471 32.4374 39.7188C32.4374 43.4294 29.4293 46.4375 25.7186 46.4375C23.2281 46.4375 21.0547 45.0821 19.8948 43.0711C19.7968 42.9013 19.8004 42.6913 19.904 42.5249C20.0076 42.3585 20.1944 42.2626 20.39 42.2755C20.4471 42.2793 20.5045 42.2812 20.5624 42.2812C21.9776 42.2812 23.1249 41.134 23.1249 39.7188Z" fill="#E9423E"/>
</svg>
